<svg width="32" height="32" viewBox="0 0 32 32" fill="none" xmlns="http://www.w3.org/2000/svg">
<path d="M15.9998 17.3337C18.2092 17.3337 19.9998 19.1243 19.9998 21.3337C19.9998 22.467 19.5292 23.4883 18.7732 24.2163L16.2265 26.667H19.9998V29.3337H11.9998V27.035L16.9238 22.295C17.1772 22.051 17.3332 21.711 17.3332 21.3337C17.3332 20.5977 16.7358 20.0003 15.9998 20.0003C15.2638 20.0003 14.6665 20.5977 14.6665 21.3337H11.9998C11.9998 19.1243 13.7905 17.3337 15.9998 17.3337ZM23.9998 17.3337V22.667H26.6665V17.3337H29.3332V29.3337H26.6665V25.3337H21.3332V17.3337H23.9998ZM5.33317 16.0003C5.33317 19.3697 6.8945 22.3737 9.33317 24.3283V27.5497C5.34784 25.2443 2.6665 20.9363 2.6665 16.0003H5.33317ZM15.9998 2.66699C22.9132 2.66699 28.5985 7.92966 29.2665 14.667H26.5838C25.9278 9.40566 21.4398 5.33366 15.9998 5.33366C12.3332 5.33366 9.0985 7.18299 7.17984 10.0003H10.6665V12.667H2.6665V4.66699H5.33317V8.00033C7.76517 4.76033 11.6385 2.66699 15.9998 2.66699Z" fill="#CECACF"/>
</svg>
